# xmcd
#
# Track frame offsets:
#	150
#	17602
#	36471
#	48685
#	64894
#	81074
#	95991
#	107924
#	129183
#	145547
#	160269
#	164474
#	177620
#	195352
#	214833
#	233541
#	249981
#	270559
#	281047
#	307380
#
# Disc length: 4500 seconds
#
# Revision: 1
# Processed by: cddbd v1.5.2PL0 Copyright (c) Steve Scherf et al.
# Submitted via: audiograbber 1.83.01
#
DISCID=25119214
DTITLE=Henri Salvador - Bonsoir Amis [CD1)
DYEAR=2004
DGENRE=Folk
TTITLE0=Itinéraire
TTITLE1=C'était un jour comme les autres
TTITLE2=Taxi
TTITLE3=Mademoiselle
TTITLE4=Sketch Producteur
TTITLE5=Ailleurs
TTITLE6=Vous
TTITLE7=J'ai tant Rêvé
TTITLE8=Quand Un Artiste
TTITLE9=Toi
TTITLE10=Sketch Producteur Suite
TTITLE11=Ma Chère et Tendre
TTITLE12=Le Voyage Dans Le Bonheur
TTITLE13=Trompette D'Occasion
TTITLE14=Sans Toi
TTITLE15=Il Fait Dimanche
TTITLE16=La Muraille De Chine
TTITLE17=Bon Dieu Qu'Elle Est Con
TTITLE18=Tu Es Venue
TTITLE19=Piste de données
EXTD=
EXTT0=
EXTT1=
EXTT2=
EXTT3=
EXTT4=
EXTT5=
EXTT6=
EXTT7=
EXTT8=
EXTT9=
EXTT10=
EXTT11=
EXTT12=
EXTT13=
EXTT14=
EXTT15=
EXTT16=
EXTT17=
EXTT18=
EXTT19=
PLAYORDER=
